<?xml version="1.0" encoding="UTF-8"?>
<svg id="Capa_2" data-name="Capa 2" xmlns="http://www.w3.org/2000/svg" viewBox="0 0 3068.89 382.26">
  <defs>
    <style>
      .cls-1 {
        fill: #e81f76;
      }
    </style>
  </defs>
  <g id="Capa_1-2" data-name="Capa 1">
    <g>
      <path class="cls-1" d="m3068.89,234.78c-.16.49-.65.8-1.13.94-.49.14-1,.19-1.51.2-1.02.02-2.02-.11-3.02-.25l.11-.55c.96.23,1.94.44,2.92.52.49.03.99.04,1.47-.05.47-.09.96-.33,1.16-.8Z"/>
      <polygon class="cls-1" points="3057.32 234.4 3051.51 232.8 3052.02 231.27 3057.63 233.36 3057.32 234.4"/>
      <polygon class="cls-1" points="3045.74 231.06 3040.01 229.25 3040.92 226.77 3046.46 229.05 3045.74 231.06"/>
      <polygon class="cls-1" points="3034.29 227.39 3028.58 225.52 3029.86 222.12 3035.39 224.46 3034.29 227.39"/>
      <polygon class="cls-1" points="3022.88 223.64 3017.18 221.76 3018.8 217.45 3024.33 219.79 3022.88 223.64"/>
      <polygon class="cls-1" points="3011.48 219.89 3005.78 218.01 3007.71 212.81 3013.26 215.12 3011.48 219.89"/>
      <polygon class="cls-1" points="3000.08 216.15 2994.38 214.3 2996.6 208.22 3002.16 210.51 3000.08 216.15"/>
      <polygon class="cls-1" points="2988.67 212.46 2982.96 210.64 2985.46 203.69 2991.03 205.95 2988.67 212.46"/>
      <polygon class="cls-1" points="2977.24 208.84 2971.53 207.06 2974.28 199.23 2979.87 201.45 2977.24 208.84"/>
      <polygon class="cls-1" points="2965.8 205.29 2960.08 203.53 2963.06 194.87 2968.68 197.04 2965.8 205.29"/>
      <polygon class="cls-1" points="2954.35 201.79 2948.62 200.08 2951.81 190.59 2957.44 192.72 2954.35 201.79"/>
      <polygon class="cls-1" points="2942.88 198.38 2937.14 196.7 2940.52 186.39 2946.17 188.48 2942.88 198.38"/>
      <polygon class="cls-1" points="2931.39 195.05 2925.63 193.42 2929.2 182.27 2934.87 184.32 2931.39 195.05"/>
      <polygon class="cls-1" points="2919.87 191.81 2914.11 190.22 2917.84 178.24 2923.53 180.25 2919.87 191.81"/>
      <polygon class="cls-1" points="2908.34 188.63 2902.57 187.07 2906.45 174.32 2912.15 176.27 2908.34 188.63"/>
      <polygon class="cls-1" points="2896.8 185.53 2891.02 184.01 2895.01 170.49 2900.73 172.4 2896.8 185.53"/>
      <polygon class="cls-1" points="2885.23 182.52 2879.44 181.04 2883.55 166.74 2889.29 168.6 2885.23 182.52"/>
      <polygon class="cls-1" points="2873.65 179.59 2867.85 178.16 2872.06 163.08 2877.81 164.9 2873.65 179.59"/>
      <polygon class="cls-1" points="2862.04 176.75 2856.23 175.36 2860.54 159.5 2866.3 161.28 2862.04 176.75"/>
      <polygon class="cls-1" points="2850.42 174 2844.6 172.65 2848.98 156.02 2854.76 157.75 2850.42 174"/>
      <polygon class="cls-1" points="2838.79 171.32 2832.96 170 2837.39 152.65 2843.19 154.32 2838.79 171.32"/>
      <polygon class="cls-1" points="2827.14 168.71 2821.31 167.44 2825.77 149.37 2831.59 151 2827.14 168.71"/>
      <polygon class="cls-1" points="2815.47 166.19 2809.63 164.96 2814.13 146.17 2819.95 147.76 2815.47 166.19"/>
      <polygon class="cls-1" points="2803.79 163.76 2797.95 162.57 2802.46 143.06 2808.3 144.61 2803.79 163.76"/>
      <polygon class="cls-1" points="2792.09 161.41 2786.24 160.28 2790.76 140.04 2796.61 141.54 2792.09 161.41"/>
      <polygon class="cls-1" points="2780.38 159.16 2774.52 158.06 2779.04 137.11 2784.91 138.56 2780.38 159.16"/>
      <polygon class="cls-1" points="2768.66 156.99 2762.79 155.93 2767.3 134.27 2773.17 135.67 2768.66 156.99"/>
      <polygon class="cls-1" points="2756.92 154.88 2751.05 153.86 2755.52 131.54 2761.41 132.89 2756.92 154.88"/>
      <polygon class="cls-1" points="2745.18 152.86 2739.3 151.87 2743.73 128.9 2749.63 130.21 2745.18 152.86"/>
      <polygon class="cls-1" points="2733.42 150.91 2727.54 149.98 2731.91 126.35 2737.82 127.61 2733.42 150.91"/>
      <polygon class="cls-1" points="2721.65 149.06 2715.76 148.17 2720.07 123.88 2725.99 125.1 2721.65 149.06"/>
      <polygon class="cls-1" points="2709.87 147.29 2703.98 146.44 2708.21 121.5 2714.14 122.68 2709.87 147.29"/>
      <polygon class="cls-1" points="2698.08 145.61 2692.18 144.8 2696.34 119.2 2702.28 120.34 2698.08 145.61"/>
      <polygon class="cls-1" points="2686.28 144.02 2680.37 143.25 2684.44 116.99 2690.39 118.09 2686.28 144.02"/>
      <polygon class="cls-1" points="2674.47 142.51 2668.56 141.78 2672.53 114.88 2678.49 115.92 2674.47 142.51"/>
      <polygon class="cls-1" points="2662.65 141.06 2656.74 140.37 2660.6 112.87 2666.56 113.86 2662.65 141.06"/>
      <polygon class="cls-1" points="2650.83 139.7 2644.91 139.05 2648.65 110.94 2654.62 111.89 2650.83 139.7"/>
      <polygon class="cls-1" points="2638.99 138.42 2633.08 137.81 2636.68 109.1 2642.67 110.01 2638.99 138.42"/>
      <polygon class="cls-1" points="2627.16 137.22 2621.23 136.66 2624.71 107.34 2630.7 108.21 2627.16 137.22"/>
      <polygon class="cls-1" points="2615.31 136.1 2609.39 135.57 2612.71 105.69 2618.71 106.51 2615.31 136.1"/>
      <polygon class="cls-1" points="2603.46 135.06 2597.53 134.57 2600.7 104.12 2606.71 104.9 2603.46 135.06"/>
      <polygon class="cls-1" points="2591.61 134.1 2585.68 133.65 2588.68 102.64 2594.69 103.37 2591.61 134.1"/>
      <polygon class="cls-1" points="2579.75 133.22 2573.81 132.82 2576.65 101.24 2582.67 101.93 2579.75 133.22"/>
      <polygon class="cls-1" points="2567.88 132.43 2561.95 132.06 2564.61 99.94 2570.63 100.58 2567.88 132.43"/>
      <polygon class="cls-1" points="2556.01 131.7 2550.08 131.37 2552.55 98.73 2558.58 99.32 2556.01 131.7"/>
      <polygon class="cls-1" points="2544.14 131.06 2538.21 130.77 2540.49 97.6 2546.52 98.15 2544.14 131.06"/>
      <polygon class="cls-1" points="2532.27 130.5 2526.33 130.25 2528.42 96.56 2534.45 97.07 2532.27 130.5"/>
      <polygon class="cls-1" points="2520.4 130.02 2514.46 129.81 2516.34 95.6 2522.38 96.07 2520.4 130.02"/>
      <polygon class="cls-1" points="2508.52 129.62 2502.58 129.44 2504.25 94.73 2510.29 95.15 2508.52 129.62"/>
      <polygon class="cls-1" points="2496.64 129.29 2490.7 129.15 2492.15 93.95 2498.2 94.33 2496.64 129.29"/>
      <polygon class="cls-1" points="2484.76 129.03 2478.83 128.94 2480.05 93.26 2486.1 93.6 2484.76 129.03"/>
      <polygon class="cls-1" points="2472.89 128.86 2466.95 128.81 2467.94 92.65 2474 92.94 2472.89 128.86"/>
      <polygon class="cls-1" points="2461.01 128.77 2455.07 128.76 2455.83 92.12 2461.89 92.37 2461.01 128.77"/>
      <polygon class="cls-1" points="2449.13 128.76 2443.19 128.78 2443.71 91.68 2449.77 91.89 2449.13 128.76"/>
      <polygon class="cls-1" points="2437.25 128.82 2431.32 128.87 2431.59 91.34 2437.65 91.5 2437.25 128.82"/>
      <polygon class="cls-1" points="2425.38 128.95 2419.44 129.04 2419.46 91.07 2425.53 91.19 2425.38 128.95"/>
      <polygon class="cls-1" points="2413.51 129.16 2407.57 129.29 2407.34 90.89 2413.4 90.97 2413.51 129.16"/>
      <polygon class="cls-1" points="2401.64 129.45 2395.7 129.62 2395.21 90.78 2401.27 90.82 2401.64 129.45"/>
      <polygon class="cls-1" points="2389.77 129.82 2383.84 130.03 2383.08 90.76 2389.14 90.76 2389.77 129.82"/>
      <polygon class="cls-1" points="2377.91 130.26 2371.98 130.5 2370.95 90.84 2377.01 90.79 2377.91 130.26"/>
      <polygon class="cls-1" points="2366.05 130.76 2360.12 131.05 2358.82 90.99 2364.88 90.91 2366.05 130.76"/>
      <polygon class="cls-1" points="2354.19 131.35 2348.27 131.67 2346.69 91.23 2352.75 91.1 2354.19 131.35"/>
      <polygon class="cls-1" points="2342.34 132.01 2336.42 132.37 2334.56 91.54 2340.62 91.38 2342.34 132.01"/>
      <polygon class="cls-1" points="2330.5 132.75 2324.58 133.15 2322.43 91.94 2328.49 91.73 2330.5 132.75"/>
      <polygon class="cls-1" points="2318.66 133.57 2312.74 133.99 2310.31 92.42 2316.37 92.16 2318.66 133.57"/>
      <polygon class="cls-1" points="2306.83 134.44 2300.91 134.91 2298.19 92.98 2304.25 92.69 2306.83 134.44"/>
      <polygon class="cls-1" points="2295 135.39 2289.09 135.9 2286.07 93.63 2292.13 93.3 2295 135.39"/>
      <polygon class="cls-1" points="2283.18 136.42 2277.27 136.96 2273.95 94.35 2280.01 93.98 2283.18 136.42"/>
      <polygon class="cls-1" points="2271.36 137.52 2265.46 138.1 2261.84 95.15 2267.9 94.74 2271.36 137.52"/>
      <polygon class="cls-1" points="2259.56 138.69 2253.66 139.31 2249.74 96.03 2255.79 95.58 2259.56 138.69"/>
      <polygon class="cls-1" points="2247.76 139.94 2241.86 140.59 2237.64 97 2243.69 96.5 2247.76 139.94"/>
      <polygon class="cls-1" points="2235.97 141.25 2230.08 141.93 2225.55 98.04 2231.59 97.51 2235.97 141.25"/>
      <polygon class="cls-1" points="2224.19 142.63 2218.3 143.35 2213.46 99.17 2219.5 98.6 2224.19 142.63"/>
      <polygon class="cls-1" points="2212.41 144.08 2206.53 144.83 2201.38 100.36 2207.42 99.76 2212.41 144.08"/>
      <polygon class="cls-1" points="2200.65 145.61 2194.77 146.4 2189.31 101.64 2195.34 100.99 2200.65 145.61"/>
      <polygon class="cls-1" points="2188.9 147.21 2183.02 148.03 2177.24 102.98 2183.27 102.3 2188.9 147.21"/>
      <polygon class="cls-1" points="2177.15 148.87 2171.28 149.73 2165.19 104.42 2171.21 103.69 2177.15 148.87"/>
      <polygon class="cls-1" points="2165.42 150.6 2159.55 151.49 2153.14 105.93 2159.16 105.16 2165.42 150.6"/>
      <polygon class="cls-1" points="2153.69 152.39 2147.84 153.32 2141.11 107.52 2147.12 106.71 2153.69 152.39"/>
      <polygon class="cls-1" points="2141.98 154.26 2136.13 155.22 2129.08 109.17 2135.09 108.34 2141.98 154.26"/>
      <polygon class="cls-1" points="2130.28 156.19 2124.43 157.19 2117.07 110.91 2123.07 110.03 2130.28 156.19"/>
      <polygon class="cls-1" points="2118.59 158.2 2112.75 159.23 2105.06 112.71 2111.06 111.8 2118.59 158.2"/>
      <polygon class="cls-1" points="2106.92 160.28 2101.08 161.34 2093.07 114.59 2099.06 113.64 2106.92 160.28"/>
      <polygon class="cls-1" points="2095.25 162.41 2089.42 163.5 2081.09 116.55 2087.08 115.56 2095.25 162.41"/>
      <polygon class="cls-1" points="2083.6 164.6 2077.77 165.73 2069.12 118.58 2075.1 117.56 2083.6 164.6"/>
      <polygon class="cls-1" points="2071.95 166.87 2066.14 168.02 2057.16 120.69 2063.14 119.63 2071.95 166.87"/>
      <polygon class="cls-1" points="2060.33 169.2 2054.52 170.39 2045.22 122.86 2051.19 121.77 2060.33 169.2"/>
      <polygon class="cls-1" points="2048.71 171.6 2042.91 172.82 2033.29 125.1 2039.25 123.97 2048.71 171.6"/>
      <polygon class="cls-1" points="2037.11 174.06 2031.32 175.32 2021.37 127.41 2027.33 126.25 2037.11 174.06"/>
      <polygon class="cls-1" points="2025.52 176.59 2019.73 177.87 2009.47 129.81 2015.42 128.6 2025.52 176.59"/>
      <polygon class="cls-1" points="2013.95 179.17 2008.17 180.49 1997.58 132.27 2003.52 131.03 2013.95 179.17"/>
      <polygon class="cls-1" points="2002.39 181.82 1996.61 183.16 1985.71 134.8 1991.64 133.53 2002.39 181.82"/>
      <polygon class="cls-1" points="1990.84 184.53 1985.07 185.91 1973.85 137.4 1979.78 136.1 1990.84 184.53"/>
      <polygon class="cls-1" points="1979.31 187.3 1973.55 188.72 1962.01 140.07 1967.93 138.73 1979.31 187.3"/>
      <polygon class="cls-1" points="1967.79 190.15 1962.04 191.59 1950.18 142.8 1956.09 141.43 1967.79 190.15"/>
      <polygon class="cls-1" points="1956.29 193.05 1950.55 194.53 1938.37 145.6 1944.27 144.19 1956.29 193.05"/>
      <polygon class="cls-1" points="1944.81 196.01 1939.07 197.51 1926.58 148.48 1932.47 147.03 1944.81 196.01"/>
      <polygon class="cls-1" points="1933.34 199.03 1927.61 200.56 1914.8 151.43 1920.69 149.94 1933.34 199.03"/>
      <polygon class="cls-1" points="1921.88 202.1 1916.16 203.66 1903.04 154.44 1908.92 152.92 1921.88 202.1"/>
      <polygon class="cls-1" points="1910.44 205.24 1904.73 206.83 1891.3 157.51 1897.17 155.96 1910.44 205.24"/>
      <polygon class="cls-1" points="1899.02 208.44 1893.31 210.06 1879.57 160.64 1885.43 159.07 1899.02 208.44"/>
      <polygon class="cls-1" points="1887.61 211.7 1881.92 213.35 1867.87 163.84 1873.72 162.24 1887.61 211.7"/>
      <polygon class="cls-1" points="1876.23 215.02 1870.54 216.71 1856.18 167.1 1862.02 165.47 1876.23 215.02"/>
      <polygon class="cls-1" points="1864.86 218.4 1859.17 220.1 1844.51 170.44 1850.34 168.76 1864.86 218.4"/>
      <polygon class="cls-1" points="1853.5 221.82 1847.83 223.56 1832.86 173.84 1838.68 172.14 1853.5 221.82"/>
      <polygon class="cls-1" points="1842.16 225.31 1836.49 227.07 1821.23 177.31 1827.04 175.57 1842.16 225.31"/>
      <polygon class="cls-1" points="1830.83 228.85 1825.18 230.64 1809.62 180.83 1815.42 179.06 1830.83 228.85"/>
      <polygon class="cls-1" points="1819.53 232.45 1813.88 234.28 1798.03 184.41 1803.82 182.62 1819.53 232.45"/>
      <polygon class="cls-1" points="1808.24 236.11 1802.61 237.97 1786.45 188.06 1792.24 186.23 1808.24 236.11"/>
      <polygon class="cls-1" points="1796.98 239.83 1791.35 241.71 1774.9 191.76 1780.67 189.9 1796.98 239.83"/>
      <polygon class="cls-1" points="1785.73 243.61 1780.1 245.51 1763.36 195.53 1769.13 193.63 1785.73 243.61"/>
      <polygon class="cls-1" points="1774.49 247.42 1768.88 249.35 1751.85 199.36 1757.61 197.44 1774.49 247.42"/>
      <polygon class="cls-1" points="1763.27 251.29 1757.67 253.25 1740.36 203.26 1746.11 201.3 1763.27 251.29"/>
      <polygon class="cls-1" points="1752.07 255.22 1746.48 257.21 1728.89 207.21 1734.63 205.23 1752.07 255.22"/>
      <polygon class="cls-1" points="1740.89 259.21 1735.31 261.22 1717.44 211.22 1723.17 209.21 1740.89 259.21"/>
      <polygon class="cls-1" points="1729.73 263.24 1724.16 265.28 1706.01 215.28 1711.73 213.24 1729.73 263.24"/>
      <polygon class="cls-1" points="1718.59 267.34 1713.03 269.4 1694.61 219.4 1700.31 217.33 1718.59 267.34"/>
      <polygon class="cls-1" points="1707.47 271.49 1701.91 273.58 1683.22 223.57 1688.91 221.48 1707.47 271.49"/>
      <polygon class="cls-1" points="1696.36 275.68 1690.82 277.79 1671.86 227.82 1677.54 225.69 1696.36 275.68"/>
      <polygon class="cls-1" points="1685.27 279.92 1679.74 282.06 1660.52 232.12 1666.19 229.96 1685.27 279.92"/>
      <polygon class="cls-1" points="1674.2 284.21 1668.68 286.37 1649.2 236.48 1654.86 234.29 1674.2 284.21"/>
      <polygon class="cls-1" points="1663.09 288.57 1657.39 290.8 1638.13 240.76 1643.61 238.65 1663.09 288.57"/>
      <polygon class="cls-1" points="1651.67 293 1645.95 295.17 1627.13 244.9 1632.63 242.84 1651.67 293"/>
      <polygon class="cls-1" points="1640.21 297.32 1634.47 299.44 1616.09 248.95 1621.61 246.94 1640.21 297.32"/>
      <polygon class="cls-1" points="1628.72 301.54 1622.95 303.61 1605.02 252.89 1610.56 250.93 1628.72 301.54"/>
      <polygon class="cls-1" points="1617.18 305.65 1611.4 307.66 1593.91 256.73 1599.47 254.82 1617.18 305.65"/>
      <polygon class="cls-1" points="1605.61 309.64 1599.8 311.59 1582.77 260.49 1588.34 258.62 1605.61 309.64"/>
      <polygon class="cls-1" points="1593.99 313.52 1588.17 315.42 1571.6 264.15 1577.19 262.33 1593.99 313.52"/>
      <polygon class="cls-1" points="1582.34 317.3 1576.5 319.14 1560.4 267.7 1566 265.94 1582.34 317.3"/>
      <polygon class="cls-1" points="1570.66 320.96 1564.81 322.76 1549.16 271.15 1554.78 269.44 1570.66 320.96"/>
      <polygon class="cls-1" points="1558.94 324.53 1553.07 326.27 1537.89 274.5 1543.53 272.84 1558.94 324.53"/>
      <polygon class="cls-1" points="1547.2 327.98 1541.31 329.67 1526.59 277.75 1532.25 276.14 1547.2 327.98"/>
      <polygon class="cls-1" points="1535.42 331.33 1529.52 332.97 1515.26 280.9 1520.93 279.34 1535.42 331.33"/>
      <polygon class="cls-1" points="1523.62 334.57 1517.7 336.15 1503.91 283.95 1509.59 282.43 1523.62 334.57"/>
      <polygon class="cls-1" points="1511.78 337.7 1505.85 339.22 1492.53 286.91 1498.22 285.44 1511.78 337.7"/>
      <polygon class="cls-1" points="1499.91 340.71 1493.97 342.18 1481.12 289.77 1486.83 288.35 1499.91 340.71"/>
      <polygon class="cls-1" points="1488.02 343.62 1482.07 345.03 1469.69 292.53 1475.41 291.16 1488.02 343.62"/>
      <polygon class="cls-1" points="1476.11 346.41 1470.14 347.77 1458.24 295.19 1463.97 293.87 1476.11 346.41"/>
      <polygon class="cls-1" points="1464.17 349.11 1458.19 350.41 1446.75 297.74 1452.5 296.48 1464.17 349.11"/>
      <polygon class="cls-1" points="1452.21 351.69 1446.22 352.95 1435.25 300.2 1441.01 298.98 1452.21 351.69"/>
      <polygon class="cls-1" points="1440.23 354.18 1434.23 355.38 1423.72 302.55 1429.49 301.39 1440.23 354.18"/>
      <polygon class="cls-1" points="1428.22 356.55 1422.22 357.7 1412.18 304.81 1417.95 303.69 1428.22 356.55"/>
      <polygon class="cls-1" points="1416.2 358.81 1410.18 359.9 1400.61 306.98 1406.4 305.91 1416.2 358.81"/>
      <polygon class="cls-1" points="1404.16 360.96 1398.13 361.99 1389.03 309.05 1394.82 308.03 1404.16 360.96"/>
      <polygon class="cls-1" points="1392.1 363 1386.06 363.98 1377.43 311.03 1383.23 310.05 1392.1 363"/>
      <polygon class="cls-1" points="1380.02 364.94 1373.98 365.87 1365.81 312.9 1371.62 311.98 1380.02 364.94"/>
      <polygon class="cls-1" points="1367.93 366.78 1361.88 367.66 1354.17 314.67 1359.99 313.8 1367.93 366.78"/>
      <polygon class="cls-1" points="1355.83 368.51 1349.77 369.34 1342.52 316.35 1348.34 315.53 1355.83 368.51"/>
      <polygon class="cls-1" points="1343.71 370.14 1337.65 370.92 1330.85 317.93 1336.68 317.15 1343.71 370.14"/>
      <polygon class="cls-1" points="1331.58 371.67 1325.51 372.38 1319.16 319.42 1325.01 318.68 1331.58 371.67"/>
      <polygon class="cls-1" points="1319.44 373.07 1313.37 373.74 1307.47 320.82 1313.32 320.13 1319.44 373.07"/>
      <polygon class="cls-1" points="1307.29 374.38 1301.21 374.99 1295.76 322.12 1301.62 321.48 1307.29 374.38"/>
      <polygon class="cls-1" points="1295.13 375.58 1289.05 376.15 1284.04 323.33 1289.9 322.74 1295.13 375.58"/>
      <polygon class="cls-1" points="1282.96 376.69 1276.88 377.2 1272.31 324.45 1278.18 323.9 1282.96 376.69"/>
      <polygon class="cls-1" points="1270.79 377.69 1264.7 378.16 1260.57 325.46 1266.44 324.97 1270.79 377.69"/>
      <polygon class="cls-1" points="1258.61 378.6 1252.52 379.02 1248.82 326.39 1254.7 325.94 1258.61 378.6"/>
      <polygon class="cls-1" points="1246.42 379.41 1240.33 379.77 1237.06 327.21 1242.94 326.81 1246.42 379.41"/>
      <polygon class="cls-1" points="1234.23 380.11 1228.14 380.42 1225.29 327.97 1231.18 327.6 1234.23 380.11"/>
      <polygon class="cls-1" points="1222.04 380.7 1215.94 380.96 1213.52 328.63 1219.41 328.31 1222.04 380.7"/>
      <polygon class="cls-1" points="1209.84 381.2 1203.75 381.41 1201.74 329.2 1207.63 328.92 1209.84 381.2"/>
      <polygon class="cls-1" points="1197.65 381.6 1191.55 381.76 1189.95 329.67 1195.84 329.44 1197.65 381.6"/>
      <polygon class="cls-1" points="1185.45 381.9 1179.35 382.02 1178.16 330.05 1184.05 329.87 1185.45 381.9"/>
      <polygon class="cls-1" points="1173.25 382.11 1167.15 382.19 1166.36 330.35 1172.26 330.21 1173.25 382.11"/>
      <polygon class="cls-1" points="1161.05 382.23 1154.95 382.26 1154.56 330.55 1160.46 330.46 1161.05 382.23"/>
      <polygon class="cls-1" points="1148.85 382.25 1142.76 382.22 1142.76 330.68 1148.66 330.62 1148.85 382.25"/>
      <polygon class="cls-1" points="1136.66 382.16 1130.56 382.09 1130.95 330.72 1136.85 330.71 1136.66 382.16"/>
      <polygon class="cls-1" points="1124.47 381.99 1118.37 381.86 1119.14 330.68 1125.04 330.71 1124.47 381.99"/>
      <polygon class="cls-1" points="1112.28 381.72 1106.19 381.55 1107.33 330.54 1113.23 330.62 1112.28 381.72"/>
      <polygon class="cls-1" points="1100.1 381.36 1094.01 381.14 1095.52 330.32 1101.42 330.44 1100.1 381.36"/>
      <polygon class="cls-1" points="1087.92 380.91 1081.83 380.65 1083.71 330.02 1089.61 330.18 1087.92 380.91"/>
      <polygon class="cls-1" points="1075.75 380.37 1069.66 380.07 1071.9 329.62 1077.8 329.83 1075.75 380.37"/>
      <polygon class="cls-1" points="1063.58 379.74 1057.5 379.38 1060.08 329.16 1065.99 329.4 1063.58 379.74"/>
      <polygon class="cls-1" points="1051.42 379.01 1045.35 378.61 1048.28 328.62 1054.18 328.9 1051.42 379.01"/>
      <polygon class="cls-1" points="1039.27 378.19 1033.2 377.75 1036.47 327.99 1042.37 328.32 1039.27 378.19"/>
      <polygon class="cls-1" points="1027.13 377.29 1021.06 376.8 1024.66 327.28 1030.57 327.65 1027.13 377.29"/>
      <polygon class="cls-1" points="1015 376.3 1008.93 375.77 1012.86 326.49 1018.76 326.9 1015 376.3"/>
      <polygon class="cls-1" points="1002.87 375.22 996.81 374.66 1001.06 325.62 1006.96 326.06 1002.87 375.22"/>
      <polygon class="cls-1" points="990.76 374.07 984.71 373.46 989.27 324.66 995.17 325.15 990.76 374.07"/>
      <polygon class="cls-1" points="978.66 372.82 972.61 372.16 977.48 323.64 983.37 324.16 978.66 372.82"/>
      <polygon class="cls-1" points="966.56 371.48 960.52 370.78 965.69 322.55 971.58 323.11 966.56 371.48"/>
      <polygon class="cls-1" points="954.48 370.06 948.45 369.32 953.91 321.37 959.8 321.97 954.48 370.06"/>
      <polygon class="cls-1" points="942.42 368.56 936.39 367.78 942.14 320.12 948.02 320.75 942.42 368.56"/>
      <polygon class="cls-1" points="930.36 366.98 924.34 366.16 930.37 318.78 936.25 319.46 930.36 366.98"/>
      <polygon class="cls-1" points="918.32 365.32 912.3 364.46 918.61 317.37 924.49 318.09 918.32 365.32"/>
      <polygon class="cls-1" points="906.29 363.58 900.28 362.67 906.85 315.9 912.73 316.64 906.29 363.58"/>
      <polygon class="cls-1" points="894.27 361.74 888.27 360.8 895.1 314.35 900.98 315.14 894.27 361.74"/>
      <polygon class="cls-1" points="882.28 359.83 876.28 358.85 883.36 312.74 889.23 313.55 882.28 359.83"/>
      <polygon class="cls-1" points="870.29 357.85 864.3 356.83 871.63 311.04 877.49 311.9 870.29 357.85"/>
      <polygon class="cls-1" points="858.32 355.79 852.34 354.73 859.9 309.28 865.77 310.17 858.32 355.79"/>
      <polygon class="cls-1" points="846.37 353.65 840.39 352.56 848.19 307.44 854.05 308.37 846.37 353.65"/>
      <polygon class="cls-1" points="834.43 351.44 828.46 350.31 836.48 305.53 842.34 306.49 834.43 351.44"/>
      <polygon class="cls-1" points="822.5 349.15 816.55 347.97 824.78 303.56 830.63 304.55 822.5 349.15"/>
      <polygon class="cls-1" points="810.6 346.77 804.65 345.56 813.1 301.52 818.94 302.55 810.6 346.77"/>
      <polygon class="cls-1" points="798.71 344.33 792.78 343.08 801.42 299.41 807.26 300.48 798.71 344.33"/>
      <polygon class="cls-1" points="786.84 341.81 780.91 340.53 789.75 297.24 795.58 298.33 786.84 341.81"/>
      <polygon class="cls-1" points="774.99 339.23 769.07 337.91 778.09 294.99 783.92 296.12 774.99 339.23"/>
      <polygon class="cls-1" points="763.15 336.57 757.24 335.21 766.45 292.67 772.27 293.84 763.15 336.57"/>
      <polygon class="cls-1" points="751.34 333.83 745.44 332.44 754.81 290.31 760.63 291.5 751.34 333.83"/>
      <polygon class="cls-1" points="739.54 331.02 733.65 329.59 743.19 287.87 749 289.1 739.54 331.02"/>
      <polygon class="cls-1" points="727.76 328.14 721.88 326.68 731.57 285.37 737.38 286.63 727.76 328.14"/>
      <polygon class="cls-1" points="716.01 325.2 710.13 323.7 719.97 282.8 725.77 284.09 716.01 325.2"/>
      <polygon class="cls-1" points="704.27 322.19 698.4 320.66 708.38 280.17 714.18 281.49 704.27 322.19"/>
      <polygon class="cls-1" points="692.54 319.11 686.69 317.54 696.81 277.47 702.6 278.83 692.54 319.11"/>
      <polygon class="cls-1" points="680.85 315.95 675.01 314.35 685.24 274.73 691.02 276.11 680.85 315.95"/>
      <polygon class="cls-1" points="669.17 312.73 663.34 311.09 673.69 271.92 679.46 273.33 669.17 312.73"/>
      <polygon class="cls-1" points="657.51 309.44 651.69 307.77 662.15 269.04 667.92 270.49 657.51 309.44"/>
      <polygon class="cls-1" points="645.87 306.09 640.06 304.39 650.63 266.1 656.39 267.58 645.87 306.09"/>
      <polygon class="cls-1" points="634.26 302.67 628.45 300.94 639.12 263.1 644.87 264.61 634.26 302.67"/>
      <polygon class="cls-1" points="622.66 299.19 616.87 297.42 627.62 260.05 633.36 261.58 622.66 299.19"/>
      <polygon class="cls-1" points="611.09 295.63 605.31 293.83 616.13 256.94 621.87 258.51 611.09 295.63"/>
      <polygon class="cls-1" points="599.54 292.02 593.77 290.18 604.66 253.78 610.39 255.37 599.54 292.02"/>
      <polygon class="cls-1" points="588.01 288.34 582.25 286.48 593.2 250.55 598.93 252.17 588.01 288.34"/>
      <polygon class="cls-1" points="576.5 284.6 570.75 282.71 581.76 247.26 587.48 248.91 576.5 284.6"/>
      <polygon class="cls-1" points="565.01 280.81 559.28 278.88 570.33 243.92 576.05 245.59 565.01 280.81"/>
      <polygon class="cls-1" points="553.55 276.93 547.83 274.97 558.92 240.53 564.62 242.23 553.55 276.93"/>
      <polygon class="cls-1" points="542.11 273 536.4 271.01 547.52 237.08 553.21 238.81 542.11 273"/>
      <polygon class="cls-1" points="530.7 269.01 525 267 536.13 233.57 541.82 235.33 530.7 269.01"/>
      <polygon class="cls-1" points="519.3 264.97 513.61 262.92 524.76 230 530.45 231.79 519.3 264.97"/>
      <polygon class="cls-1" points="507.93 260.86 502.26 258.78 513.41 226.38 519.09 228.19 507.93 260.86"/>
      <polygon class="cls-1" points="496.59 256.69 490.92 254.58 502.07 222.72 507.74 224.56 496.59 256.69"/>
      <polygon class="cls-1" points="485.27 252.46 479.61 250.32 490.74 219 496.4 220.87 485.27 252.46"/>
      <polygon class="cls-1" points="473.97 248.17 468.33 246 479.44 215.22 485.09 217.12 473.97 248.17"/>
      <polygon class="cls-1" points="462.69 243.83 457.06 241.63 468.15 211.39 473.79 213.31 462.69 243.83"/>
      <polygon class="cls-1" points="451.44 239.43 445.82 237.2 456.87 207.51 462.51 209.45 451.44 239.43"/>
      <polygon class="cls-1" points="440.22 234.96 434.61 232.7 445.61 203.58 451.24 205.55 440.22 234.96"/>
      <polygon class="cls-1" points="429.02 230.44 423.42 228.15 434.36 199.6 439.98 201.6 429.02 230.44"/>
      <polygon class="cls-1" points="417.84 225.86 412.26 223.55 423.14 195.56 428.75 197.59 417.84 225.86"/>
      <polygon class="cls-1" points="406.69 221.23 401.12 218.89 411.93 191.47 417.53 193.52 406.69 221.23"/>
      <polygon class="cls-1" points="395.56 216.54 390.01 214.17 400.73 187.34 406.33 189.41 395.56 216.54"/>
      <polygon class="cls-1" points="384.46 211.79 378.92 209.39 389.55 183.16 395.14 185.26 384.46 211.79"/>
      <polygon class="cls-1" points="373.39 206.99 367.86 204.56 378.39 178.93 383.97 181.05 373.39 206.99"/>
      <polygon class="cls-1" points="362.34 202.13 356.82 199.68 367.25 174.64 372.82 176.79 362.34 202.13"/>
      <polygon class="cls-1" points="351.32 197.22 345.82 194.73 356.12 170.31 361.68 172.48 351.32 197.22"/>
      <polygon class="cls-1" points="340.33 192.24 334.84 189.73 345 165.94 350.56 168.14 340.33 192.24"/>
      <polygon class="cls-1" points="329.36 187.2 323.89 184.67 333.91 161.52 339.45 163.74 329.36 187.2"/>
      <polygon class="cls-1" points="318.42 182.12 312.96 179.56 322.83 157.05 328.37 159.29 318.42 182.12"/>
      <polygon class="cls-1" points="307.51 176.99 302.06 174.4 311.77 152.52 317.3 154.79 307.51 176.99"/>
      <polygon class="cls-1" points="296.62 171.8 291.18 169.19 300.74 147.94 306.25 150.24 296.62 171.8"/>
      <polygon class="cls-1" points="285.76 166.57 280.33 163.93 289.72 143.31 295.23 145.63 285.76 166.57"/>
      <polygon class="cls-1" points="274.92 161.28 269.51 158.62 278.72 138.62 284.22 140.97 274.92 161.28"/>
      <polygon class="cls-1" points="264.11 155.94 258.72 153.24 267.73 133.92 273.23 136.28 264.11 155.94"/>
      <polygon class="cls-1" points="253.34 150.52 247.97 147.8 256.76 129.17 262.24 131.55 253.34 150.52"/>
      <polygon class="cls-1" points="242.6 145.06 237.24 142.31 245.81 124.36 251.28 126.77 242.6 145.06"/>
      <polygon class="cls-1" points="231.88 139.54 226.54 136.77 234.88 119.5 240.34 121.94 231.88 139.54"/>
      <polygon class="cls-1" points="221.19 133.98 215.86 131.18 223.97 114.59 229.43 117.05 221.19 133.98"/>
      <polygon class="cls-1" points="210.53 128.37 205.21 125.54 213.09 109.63 218.53 112.12 210.53 128.37"/>
      <polygon class="cls-1" points="199.9 122.7 194.59 119.85 202.22 104.62 207.65 107.13 199.9 122.7"/>
      <polygon class="cls-1" points="189.3 116.97 184.02 114.08 191.37 99.59 196.79 102.11 189.3 116.97"/>
      <polygon class="cls-1" points="178.74 111.18 173.47 108.27 180.53 94.5 185.95 97.05 178.74 111.18"/>
      <polygon class="cls-1" points="168.21 105.34 162.96 102.4 169.72 89.37 175.12 91.94 168.21 105.34"/>
      <polygon class="cls-1" points="157.71 99.45 152.47 96.48 158.93 84.17 164.32 86.78 157.71 99.45"/>
      <polygon class="cls-1" points="147.24 93.5 142.01 90.51 148.17 78.93 153.55 81.56 147.24 93.5"/>
      <polygon class="cls-1" points="136.79 87.51 131.59 84.48 137.43 73.64 142.8 76.29 136.79 87.51"/>
      <polygon class="cls-1" points="126.4 81.44 121.21 78.38 126.69 68.32 132.06 70.98 126.4 81.44"/>
      <polygon class="cls-1" points="116.04 75.31 110.87 72.23 115.99 62.94 121.34 65.63 116.04 75.31"/>
      <polygon class="cls-1" points="105.71 69.13 100.56 66.02 105.31 57.5 110.65 60.23 105.71 69.13"/>
      <polygon class="cls-1" points="95.41 62.9 90.28 59.76 94.66 52.01 99.98 54.77 95.41 62.9"/>
      <polygon class="cls-1" points="85.15 56.61 80.05 53.43 84.03 46.48 89.34 49.24 85.15 56.61"/>
      <polygon class="cls-1" points="74.95 50.24 69.86 47.03 73.42 40.9 78.72 43.69 74.95 50.24"/>
      <polygon class="cls-1" points="64.78 43.81 59.71 40.57 62.84 35.25 68.12 38.08 64.78 43.81"/>
      <polygon class="cls-1" points="54.66 37.31 49.61 34.05 52.29 29.54 57.56 32.41 54.66 37.31"/>
      <polygon class="cls-1" points="44.58 30.76 39.56 27.44 41.77 23.79 47.03 26.67 44.58 30.76"/>
      <polygon class="cls-1" points="34.56 24.11 29.57 20.75 31.28 17.97 36.52 20.89 34.56 24.11"/>
      <polygon class="cls-1" points="24.59 17.38 19.62 13.99 20.84 12.06 26.05 15.02 24.59 17.38"/>
      <polygon class="cls-1" points="14.69 10.57 9.77 7.12 10.42 6.09 15.62 9.09 14.69 10.57"/>
      <polygon class="cls-1" points="4.87 3.64 0 .11 .07 0 5.24 3.06 4.87 3.64"/>
    </g>
  </g>
</svg>