<?xml version="1.0" standalone="no"?>
<!DOCTYPE svg PUBLIC "-//W3C//DTD SVG 20010904//EN"
 "http://www.w3.org/TR/2001/REC-SVG-20010904/DTD/svg10.dtd">
<svg version="1.0" xmlns="http://www.w3.org/2000/svg"
 width="4253.000000pt" height="1432.000000pt" viewBox="0 0 4253.000000 1432.000000"
 preserveAspectRatio="xMidYMid meet">

<g transform="translate(0.000000,1432.000000) scale(0.100000,-0.100000)"
fill="#000000" stroke="none">
<path d="M26533 13249 c-256 -31 -487 -213 -569 -449 -119 -340 24 -712 330
-860 115 -55 197 -73 341 -73 239 1 424 86 562 258 95 119 143 263 143 436 0
269 -142 499 -383 621 -115 58 -283 84 -424 67z"/>
<path d="M9615 10948 c-3 -7 -29 -94 -59 -193 -154 -509 -304 -826 -536 -1137
-186 -248 -355 -422 -563 -580 -144 -110 -343 -221 -504 -282 l-73 -28 0 -64
0 -64 420 0 420 0 0 -2577 c0 -1596 4 -2635 10 -2728 25 -375 71 -550 186
-712 210 -294 588 -472 1126 -528 170 -17 572 -20 729 -5 507 49 890 196 1191
454 102 88 192 194 289 340 88 132 87 120 8 186 l-47 40 -83 -107 c-111 -145
-313 -346 -414 -411 -144 -94 -318 -146 -530 -158 -348 -20 -683 98 -903 318
-193 192 -289 422 -349 834 -16 110 -17 314 -20 2587 l-4 2467 996 0 995 0 0
150 0 150 -995 0 -995 0 0 1030 0 1030 -145 0 c-108 0 -147 -3 -150 -12z"/>
<path d="M3440 9014 c-556 -50 -1045 -167 -1375 -328 -294 -144 -476 -327
-530 -532 -21 -82 -19 -214 5 -309 42 -166 161 -312 313 -384 110 -52 172 -66
297 -65 179 1 297 44 409 149 36 35 80 87 98 117 18 29 86 179 152 334 66 154
136 309 155 343 141 248 385 427 666 488 111 23 352 23 458 -1 384 -86 674
-314 837 -658 85 -179 148 -426 177 -693 20 -183 17 -660 -5 -808 -51 -341
-169 -536 -443 -733 -276 -198 -582 -313 -1409 -529 -873 -229 -1174 -362
-1482 -659 -130 -124 -219 -238 -291 -370 -205 -373 -249 -884 -112 -1297 67
-203 154 -349 298 -500 257 -271 619 -444 1072 -515 142 -22 560 -30 717 -14
380 38 746 162 1018 345 129 86 336 251 530 420 75 66 140 121 144 122 3 2 34
-43 69 -100 290 -470 552 -671 1002 -768 93 -21 134 -23 360 -24 275 0 344 8
525 60 353 103 619 350 750 698 l24 64 -66 38 -66 39 -26 -34 c-141 -185 -256
-295 -358 -342 -130 -59 -383 -75 -523 -33 -262 79 -420 308 -470 680 -30 229
-33 362 -40 2295 -7 1965 -8 2017 -41 2205 -28 162 -100 331 -197 461 -122
164 -334 334 -551 444 -340 170 -859 315 -1341 376 -119 14 -645 27 -750 18z
m1690 -4524 c-11 -288 -28 -477 -60 -668 -79 -465 -233 -816 -468 -1064 -198
-208 -409 -336 -671 -405 -84 -23 -117 -26 -266 -26 -145 -1 -182 3 -250 21
-373 103 -653 430 -742 870 -28 137 -25 499 5 648 61 305 194 567 410 810 198
222 408 371 922 654 556 306 731 417 1013 641 l112 90 3 -653 c2 -359 -2 -772
-8 -918z"/>
<path d="M13185 8885 c-577 -73 -1051 -134 -1052 -134 -2 -1 -3 -37 -3 -80 l0
-80 43 -5 c169 -21 222 -29 297 -47 47 -11 131 -43 187 -70 84 -40 116 -62
181 -126 166 -163 264 -356 312 -611 50 -269 60 -631 60 -2217 0 -1236 -7
-1697 -31 -1980 -23 -287 -66 -489 -133 -631 -158 -333 -348 -453 -853 -538
l-138 -23 -3 -81 -3 -82 1736 0 1736 0 -3 82 -3 82 -107 22 c-428 92 -676 227
-822 447 -87 132 -124 235 -151 429 -31 224 -38 517 -39 1778 -1 1284 1 1381
40 1730 68 622 251 1056 584 1390 204 205 457 354 740 435 182 52 329 69 544
62 260 -8 410 -44 621 -147 377 -186 599 -493 699 -967 74 -353 96 -874 96
-2278 -1 -1862 -33 -2169 -263 -2503 -101 -146 -231 -238 -427 -300 -94 -30
-300 -74 -415 -89 l-60 -8 -3 -83 -3 -82 1736 0 1735 0 0 85 c0 72 -3 85 -16
85 -34 0 -253 53 -359 87 -137 43 -312 128 -387 188 -85 67 -163 167 -219 280
-95 196 -117 358 -129 985 -12 616 -12 2239 0 2480 53 1042 295 1664 781 2012
110 79 298 170 429 207 364 105 821 102 1148 -8 390 -130 670 -427 816 -865
64 -191 101 -418 127 -776 17 -236 24 -2672 9 -3050 -26 -666 -83 -926 -252
-1155 -157 -212 -333 -298 -758 -369 l-135 -23 -3 -81 -3 -82 1736 0 1735 0 0
80 c0 56 -4 82 -12 84 -7 2 -76 18 -153 36 -242 56 -433 131 -566 221 -87 59
-188 174 -241 275 -60 114 -92 228 -112 390 -8 71 -18 149 -21 174 -4 25 -10
914 -14 1975 -8 2125 -5 2003 -71 2251 -131 493 -472 889 -970 1127 -351 169
-703 236 -1175 224 -392 -10 -698 -70 -1040 -204 -443 -175 -800 -417 -1292
-878 l-91 -86 -95 133 c-177 250 -358 462 -496 584 -261 230 -561 365 -956
431 -167 28 -607 25 -800 -5 -687 -106 -1296 -420 -1843 -947 l-119 -115 -7
78 c-20 240 -74 577 -134 842 l-37 165 -30 2 c-16 1 -502 -59 -1080 -132z"/>
<path d="M26355 8910 c-467 -60 -966 -123 -1107 -141 l-258 -32 0 -82 0 -82
73 -7 c193 -17 386 -66 485 -123 144 -82 272 -227 362 -408 79 -160 117 -332
141 -645 17 -207 24 -3123 10 -3495 -26 -661 -76 -900 -236 -1141 -107 -161
-237 -251 -455 -317 -95 -29 -330 -77 -430 -89 -24 -3 -25 -6 -28 -85 l-3 -83
1736 0 1735 0 0 80 c0 56 -4 82 -12 84 -7 2 -67 16 -133 31 -590 133 -853 363
-929 813 -39 227 -39 241 -43 3075 l-4 2757 -27 -1 c-15 -1 -409 -50 -877
-109z"/>
<path d="M29930 8885 c-514 -73 -959 -136 -987 -140 l-53 -6 0 -83 0 -83 73
-7 c398 -38 598 -144 775 -413 140 -214 187 -407 214 -883 18 -319 18 -3193 0
-3505 -28 -487 -66 -696 -163 -891 -90 -181 -205 -302 -356 -375 -104 -50
-288 -100 -468 -129 -77 -12 -146 -24 -152 -26 -9 -2 -13 -28 -13 -84 l0 -80
1735 0 1735 0 0 85 c0 72 -3 85 -16 85 -38 0 -257 55 -368 91 -206 69 -346
149 -452 261 -152 158 -221 329 -254 628 -30 276 -39 2889 -11 3220 55 646
148 1057 320 1415 137 283 280 445 476 540 124 60 176 70 335 69 159 -1 244
-20 372 -84 151 -76 223 -139 509 -457 128 -142 232 -208 376 -238 86 -19 150
-18 238 0 286 61 445 323 380 630 -66 311 -362 533 -780 584 -129 16 -378 14
-535 -5 -416 -48 -771 -177 -1109 -405 -233 -157 -404 -333 -580 -600 -53 -80
-101 -154 -107 -164 -8 -14 -13 34 -22 191 -7 115 -21 286 -32 379 -20 172
-87 592 -96 607 -3 4 -15 7 -27 7 -12 -1 -443 -61 -957 -134z"/>
<path d="M36820 9014 c-670 -60 -1235 -217 -1559 -431 -129 -86 -248 -209
-298 -310 -23 -45 -47 -108 -53 -140 -17 -81 -8 -241 19 -325 47 -145 175
-289 316 -353 100 -46 166 -60 285 -59 177 1 296 44 405 146 35 32 78 81 95
108 17 27 83 170 146 317 173 404 220 483 365 617 130 120 295 206 469 243
111 23 352 23 458 -1 361 -81 650 -296 810 -603 160 -307 232 -714 219 -1238
-6 -246 -22 -382 -63 -521 -71 -248 -234 -438 -525 -612 -265 -159 -533 -250
-1489 -502 -226 -59 -561 -168 -705 -229 -241 -102 -411 -217 -596 -401 -145
-144 -228 -256 -299 -405 -187 -393 -210 -885 -61 -1294 160 -439 576 -776
1121 -910 203 -50 314 -63 582 -68 413 -9 691 35 1013 159 266 103 495 259
900 613 75 66 140 121 144 123 4 1 17 -16 30 -38 45 -80 165 -257 232 -340
212 -267 456 -415 809 -491 93 -21 134 -23 360 -24 275 0 344 8 525 60 353
103 619 350 750 698 l24 64 -66 38 -66 39 -26 -34 c-139 -183 -255 -294 -356
-341 -126 -59 -385 -76 -525 -34 -168 51 -286 156 -369 327 -85 176 -113 345
-131 778 -5 139 -10 984 -10 1955 0 1062 -4 1763 -10 1850 -26 349 -85 539
-231 736 -115 156 -334 331 -548 439 -340 170 -859 315 -1341 376 -119 14
-645 27 -750 18z m1690 -4541 c-24 -603 -101 -988 -265 -1328 -73 -152 -161
-280 -273 -397 -196 -204 -399 -326 -660 -395 -86 -23 -116 -26 -267 -26 -144
-1 -182 3 -250 21 -367 101 -640 415 -736 847 -26 118 -37 403 -20 541 44 357
182 661 424 934 217 245 431 392 1107 760 346 188 617 365 850 554 l95 78 3
-669 c2 -367 -2 -782 -8 -920z"/>
</g>
</svg>
